<?xml version="1.0" standalone="no"?>
<!DOCTYPE svg PUBLIC "-//W3C//DTD SVG 20010904//EN"
 "http://www.w3.org/TR/2001/REC-SVG-20010904/DTD/svg10.dtd">
<svg version="1.0" xmlns="http://www.w3.org/2000/svg"
 width="800.000000pt" height="611.000000pt" viewBox="0 0 800.000000 611.000000"
 preserveAspectRatio="xMidYMid meet">
<metadata>
Created by potrace 1.16, written by Peter Selinger 2001-2019
</metadata>
<g transform="translate(0.000000,611.000000) scale(0.100000,-0.100000)"
fill="#000000" stroke="none">
<path d="M1003 4072 c-29 -43 -53 -83 -53 -90 0 -8 18 -12 55 -12 54 0 55 0
55 -30 0 -20 5 -30 15 -30 10 0 15 10 15 30 0 20 5 30 15 30 8 0 15 5 15 10 0
6 -7 10 -15 10 -12 0 -15 16 -15 80 0 106 -16 107 -87 2z"/>
<path d="M1175 4125 c-22 -21 -25 -33 -25 -95 0 -62 3 -74 25 -95 29 -30 64
-32 95 -7 18 14 24 32 28 75 5 68 -2 101 -28 127 -27 27 -66 25 -95 -5z m79
-14 c27 -29 25 -136 -2 -163 -51 -52 -105 51 -71 139 17 46 45 55 73 24z"/>
<path d="M1738 4121 c-31 -27 -33 -34 -33 -91 0 -57 2 -64 33 -91 24 -22 42
-29 72 -29 30 0 48 7 72 29 31 27 33 34 33 91 0 57 -2 64 -33 91 -24 22 -42
29 -72 29 -30 0 -48 -7 -72 -29z m141 -37 c38 -85 -20 -170 -98 -143 -73 26
-64 169 12 181 35 6 73 -11 86 -38z"/>
<path d="M258 4083 c-36 -9 -18 -25 21 -18 33 5 41 3 50 -14 15 -28 16 -28
-34 -33 -53 -6 -75 -22 -75 -54 0 -45 66 -73 99 -41 11 10 14 10 18 0 13 -35
23 -5 23 67 0 68 -3 81 -19 90 -20 10 -52 11 -83 3z"/>
<path d="M723 4083 c-26 -10 -12 -24 17 -18 33 7 60 -7 60 -31 0 -9 -11 -14
-29 -14 -47 0 -80 -17 -87 -45 -12 -49 46 -82 97 -55 13 7 19 7 19 0 0 -5 5
-10 10 -10 6 0 10 33 10 80 0 68 -3 81 -19 90 -20 10 -57 12 -78 3z"/>
<path d="M30 3571 c0 -101 2 -121 15 -121 11 0 15 12 15 45 0 44 0 45 34 45
47 0 86 33 86 74 0 53 -19 69 -89 74 l-61 4 0 -121z"/>
<path d="M370 3570 c0 -105 2 -120 17 -120 14 0 15 11 10 103 l-7 102 67 -102
c92 -143 103 -141 103 17 0 100 -2 120 -15 120 -12 0 -15 -17 -15 -97 l0 -98
-65 98 c-36 53 -72 97 -80 97 -12 0 -15 -21 -15 -120z"/>
<path d="M736 3608 c-31 -46 -56 -86 -56 -90 0 -4 26 -8 58 -10 54 -3 57 -4
60 -30 4 -35 22 -37 22 -2 0 17 6 28 20 31 11 3 20 9 20 14 0 5 -9 9 -20 9
-18 0 -20 7 -20 80 0 60 -3 80 -13 80 -8 0 -39 -37 -71 -82z"/>
<path d="M1650 3683 c-70 -26 -89 -154 -31 -207 46 -41 139 -28 166 25 18 34
19 99 3 134 -20 44 -87 67 -138 48z m105 -46 c22 -31 19 -110 -4 -138 -25 -31
-83 -32 -114 -1 -29 30 -31 110 -3 140 31 35 96 34 121 -1z"/>
<path d="M2056 3575 c-52 -129 -51 -125 -33 -125 6 0 20 18 29 40 16 38 19 40
61 40 43 0 46 -2 61 -40 9 -22 22 -40 30 -40 10 0 1 33 -33 120 -25 66 -51
120 -57 120 -7 0 -33 -52 -58 -115z"/>
<path d="M2800 3570 c0 -100 3 -120 15 -120 11 0 15 12 15 44 l0 43 42 6 c74
10 102 74 53 122 -19 20 -34 25 -75 25 l-50 0 0 -120z"/>
<path d="M3014 3607 c-21 -19 -27 -32 -27 -67 0 -35 6 -48 27 -67 66 -56 154
5 132 92 -16 63 -83 84 -132 42z"/>
<path d="M3498 3623 c-36 -9 -18 -25 21 -18 33 5 41 3 50 -14 15 -28 16 -28
-34 -33 -53 -6 -75 -22 -75 -54 0 -45 66 -73 99 -41 11 10 14 10 18 0 12 -34
23 -5 23 61 0 98 -23 120 -102 99z"/>
<path d="M3965 3605 c-53 -53 -18 -155 54 -155 36 0 61 9 61 22 0 6 -13 8 -32
4 -38 -7 -78 15 -78 44 0 18 7 20 61 20 l61 0 -6 28 c-15 60 -79 80 -121 37z"/>
<path d="M220 3110 c0 -145 18 -163 22 -23 l3 98 62 -98 c35 -53 70 -97 78
-97 13 0 15 20 15 120 0 145 -18 163 -22 23 l-3 -97 -64 97 c-35 53 -70 97
-77 97 -11 0 -14 -25 -14 -120z"/>
<path d="M470 3110 c0 -148 18 -162 22 -18 l3 103 39 -103 c21 -56 44 -102 50
-102 6 0 26 39 44 88 18 48 36 93 41 100 4 7 6 -32 3 -87 -4 -89 -3 -101 12
-101 14 0 16 16 16 120 0 112 -1 120 -19 120 -15 0 -27 -21 -56 -95 -21 -52
-39 -95 -40 -95 -2 0 -20 43 -40 95 -29 74 -41 95 -56 95 -18 0 -19 -9 -19
-120z"/>
<path d="M1460 3110 c0 -100 3 -120 15 -120 11 0 15 12 15 44 l0 43 42 6 c74
10 102 74 53 122 -19 20 -34 25 -75 25 l-50 0 0 -120z"/>
<path d="M1890 3220 c0 -5 16 -10 35 -10 l35 0 0 -110 c0 -91 3 -110 15 -110
12 0 15 19 15 110 l0 111 78 -3 77 -3 3 -107 c1 -60 7 -108 12 -108 5 0 11 48
12 108 l3 107 38 3 c20 2 37 7 37 13 0 5 -74 9 -180 9 -113 0 -180 -4 -180
-10z"/>
<path d="M3030 3110 c0 -69 4 -120 9 -120 6 0 11 21 13 48 3 40 6 47 25 50 18
3 29 -8 54 -47 43 -70 72 -70 31 0 l-29 51 23 23 c31 31 30 60 -1 90 -19 20
-34 25 -75 25 l-50 0 0 -120z"/>
<path d="M2270 2190 c0 -100 3 -120 15 -120 12 0 15 13 15 55 l0 55 60 0 60 0
0 -55 c0 -42 3 -55 15 -55 13 0 15 20 15 120 0 100 -2 120 -15 120 -12 0 -15
-13 -15 -55 l0 -55 -60 0 -60 0 0 55 c0 42 -3 55 -15 55 -12 0 -15 -20 -15
-120z"/>
<path d="M3140 2189 l0 -121 66 4 c50 3 70 9 80 23 21 28 17 61 -10 82 -23 19
-23 20 -5 31 27 17 25 67 -3 86 -14 10 -44 16 -75 16 l-53 0 0 -121z"/>
<path d="M3350 2191 l0 -121 60 0 c51 0 65 4 85 25 31 30 31 50 3 78 -22 21
-22 23 -5 40 21 21 22 46 3 72 -10 14 -30 20 -80 23 l-66 4 0 -121z"/>
<path d="M3827 2303 c-10 -16 -87 -214 -87 -223 0 -24 22 -6 36 30 15 38 18
40 61 40 42 0 45 -2 61 -40 9 -22 23 -40 30 -40 16 0 15 3 -37 136 -36 92 -52
117 -64 97z"/>
<path d="M4096 2231 c-31 -43 -56 -84 -56 -90 0 -7 22 -11 55 -11 54 0 55 0
55 -30 0 -20 5 -30 15 -30 10 0 15 10 15 30 0 20 5 30 15 30 8 0 15 5 15 10 0
6 -7 10 -15 10 -12 0 -15 16 -15 80 0 104 -12 104 -84 1z"/>
<path d="M4801 2233 c-74 -107 -74 -103 -2 -103 l61 0 0 -30 c0 -20 5 -30 15
-30 10 0 15 10 15 30 0 20 5 30 15 30 8 0 15 5 15 10 0 6 -7 10 -15 10 -12 0
-15 16 -15 80 0 106 -16 107 -89 3z"/>
<path d="M1482 2227 c-33 -35 -31 -109 4 -136 26 -21 67 -27 98 -15 28 11 18
27 -13 21 -41 -8 -67 1 -80 29 -6 14 -11 27 -11 29 0 3 29 5 65 5 l65 0 -6 28
c-14 60 -82 82 -122 39z"/>
<path d="M1805 2225 c-53 -53 -18 -155 54 -155 36 0 61 9 61 22 0 6 -13 8 -32
4 -38 -7 -78 15 -78 44 0 18 7 20 60 20 54 0 60 2 60 20 0 29 -44 70 -75 70
-14 0 -37 -11 -50 -25z"/>
<path d="M2542 2243 c-16 -6 -42 -56 -42 -82 0 -33 21 -68 47 -80 35 -16 78
-14 94 5 12 15 10 16 -28 10 -34 -6 -45 -4 -62 13 -38 38 -28 51 39 51 57 0
60 1 60 25 0 47 -57 79 -108 58z"/>
<path d="M2715 2225 c-53 -53 -18 -155 54 -155 36 0 61 9 61 22 0 6 -13 8 -32
4 -38 -7 -78 15 -78 44 0 18 7 20 60 20 52 0 60 3 60 19 0 10 -9 30 -21 45
-27 34 -71 35 -104 1z"/>
<path d="M1560 1735 c0 -69 4 -125 9 -125 5 0 11 6 14 13 4 10 7 10 18 0 20
-19 67 -15 89 7 15 15 20 33 20 70 0 37 -5 55 -20 70 -21 21 -74 27 -85 10
-14 -23 -25 -7 -25 35 0 25 -4 45 -10 45 -6 0 -10 -48 -10 -125z"/>
<path d="M30 1731 c0 -101 2 -121 15 -121 11 0 15 12 15 45 0 44 0 45 34 45
47 0 86 33 86 74 0 53 -19 69 -89 74 l-61 4 0 -121z"/>
<path d="M1040 1843 c0 -4 9 -39 19 -77 11 -39 25 -90 31 -113 15 -60 35 -55
55 15 9 31 22 77 29 101 l12 44 30 -102 c17 -61 34 -101 42 -101 15 0 15 0 51
133 25 92 27 108 13 105 -10 -2 -21 -23 -29 -58 -8 -30 -19 -73 -25 -95 l-10
-40 -27 95 c-34 118 -52 128 -76 43 -9 -32 -22 -75 -28 -96 l-13 -39 -23 96
c-15 65 -27 96 -37 96 -8 0 -14 -3 -14 -7z"/>
<path d="M329 1764 c-35 -37 -33 -98 4 -130 27 -23 68 -31 101 -18 31 12 15
22 -30 21 -35 -2 -49 3 -60 17 -27 37 -18 46 46 46 57 0 60 1 60 25 0 61 -77
86 -121 39z"/>
<path d="M605 1765 c-54 -53 -18 -155 55 -155 19 0 40 9 55 25 54 53 18 155
-55 155 -19 0 -40 -9 -55 -25z"/>
<path d="M805 1765 c-53 -53 -18 -155 54 -155 36 0 61 9 61 22 0 6 -13 8 -32
4 -38 -7 -78 15 -78 44 0 18 7 20 60 20 52 0 60 3 60 19 0 10 -9 30 -21 45
-27 34 -71 35 -104 1z"/>
<path d="M1389 1771 c-20 -16 -24 -29 -24 -71 0 -43 4 -55 24 -71 28 -23 101
-23 109 -1 3 10 -4 12 -31 7 -28 -6 -39 -3 -56 14 -38 38 -28 51 39 51 57 0
60 1 60 25 0 57 -74 85 -121 46z"/>
<path d="M1873 1783 c-26 -10 -12 -24 17 -18 33 7 60 -7 60 -31 0 -9 -12 -14
-33 -14 -45 0 -77 -25 -77 -59 0 -48 43 -66 93 -40 16 9 22 9 25 0 2 -6 8 -11
13 -11 16 0 11 133 -7 158 -15 21 -59 29 -91 15z"/>
<path d="M2170 1770 c-38 -38 -38 -102 1 -141 15 -15 30 -19 61 -17 23 2 43 9
46 16 3 10 -4 12 -31 7 -28 -6 -39 -3 -56 14 -38 38 -28 51 39 51 57 0 60 1
60 25 0 57 -79 86 -120 45z"/>
<path d="M2608 1783 c-35 -9 -19 -25 18 -19 37 8 64 -5 64 -30 0 -9 -11 -14
-29 -14 -73 0 -113 -49 -76 -90 20 -23 64 -26 84 -7 11 10 14 10 18 0 13 -35
23 -5 23 67 0 68 -3 81 -19 90 -20 10 -52 11 -83 3z"/>
</g>
</svg>
